<?xml version="1.0" encoding="utf-8"?>
<!DOCTYPE svg PUBLIC "-//W3C//DTD SVG 20010904//EN" "http://www.w3.org/TR/2001/REC-SVG-20010904/DTD/svg10.dtd">
<svg version="1.0" xmlns="http://www.w3.org/2000/svg" width="800pt" height="752pt" viewBox="0 0 800 752" style="" preserveAspectRatio="xMidYMid meet">
<g fill="#0469ADFF" stroke="#0469ADFF">
<path d="M 341.500 18.125 C 317.155 20.438 285.028 27.432 261.065 35.635 C 249.538 39.581 225.335 49.331 224.167 50.499 C 223.957 50.710 225.838 54.176 228.347 58.203 C 240.851 78.265 247.005 99.770 246.996 123.381 C 246.984 156.051 235.415 185.004 213.022 208.406 C 194.922 227.322 174.021 239.104 148.838 244.589 C 137.649 247.025 116.448 247.519 104.844 245.613 C 87.727 242.801 72.129 237.027 58.201 228.346 C 54.176 225.837 50.710 223.957 50.499 224.167 C 49.781 224.886 42.838 241.482 39.018 251.614 C 29.615 276.549 22.768 304.959 18.799 335.500 C 16.758 351.211 17.077 406.314 19.298 421.500 C 25.685 465.179 36.317 499.771 54.644 536.500 C 72.513 572.313 93.329 601.280 121.500 629.537 C 179.753 687.968 253.838 723.759 337.000 733.649 C 357.097 736.038 396.289 736.036 416.000 733.644 C 432.784 731.607 452.420 727.977 466.000 724.401 C 476.075 721.747 500.000 714.070 500.000 713.491 C 500.000 713.301 497.638 711.772 494.750 710.091 C 491.863 708.410 488.908 706.645 488.185 706.169 C 487.182 705.507 493.429 692.536 514.564 651.401 C 529.796 621.755 542.370 597.368 542.507 597.206 C 542.643 597.044 548.308 600.542 555.094 604.980 C 576.843 619.205 598.572 629.031 617.331 633.125 L 626.303 635.083 629.245 632.292 C 633.534 628.222 640.325 619.991 639.815 619.482 C 639.574 619.241 629.630 616.807 617.717 614.073 C 584.620 606.477 568.489 600.474 552.866 589.939 C 535.730 578.384 522.582 558.774 518.803 539.136 C 518.206 536.036 517.432 533.173 517.083 532.774 C 516.734 532.375 513.085 534.809 508.974 538.183 C 479.740 562.175 444.237 577.736 405.500 583.534 C 390.816 585.732 362.241 585.737 347.500 583.544 C 296.087 575.896 251.174 551.551 218.276 513.500 C 189.812 480.577 172.457 440.448 167.917 397.056 C 166.462 383.155 167.234 356.408 169.476 343.000 C 179.373 283.823 212.923 232.552 263.000 200.076 C 296.138 178.585 335.541 167.033 375.789 167.008 C 398.924 166.994 417.771 169.896 442.000 177.205 C 456.610 181.612 463.637 182.273 468.599 179.708 C 472.453 177.714 478.310 171.273 480.920 166.157 C 490.660 147.064 537.031 105.189 561.958 92.976 C 572.406 87.856 575.000 85.608 575.000 81.671 C 575.000 76.311 567.095 70.382 542.988 57.658 C 503.222 36.669 454.199 22.218 408.500 18.014 C 395.599 16.827 354.447 16.895 341.500 18.125 "/></g>
<g fill="#00AC36FF" stroke="#00AC36FF">
<path d="M 650.000 400.117 C 619.744 403.147 592.237 413.125 571.868 428.459 C 546.603 447.478 532.983 476.365 533.008 510.881 C 533.032 545.942 546.069 568.416 574.777 582.891 C 584.412 587.749 596.615 591.494 623.770 597.926 C 650.109 604.164 660.088 607.808 665.872 613.299 C 672.674 619.756 674.699 628.736 671.104 636.500 C 668.666 641.767 664.727 645.334 658.000 648.367 C 636.291 658.156 597.721 650.083 559.000 627.645 C 553.775 624.617 549.218 622.446 548.873 622.820 C 547.812 623.970 510.000 697.841 510.000 698.764 C 510.000 700.104 534.168 712.345 547.000 717.503 C 618.472 746.235 701.096 738.300 747.647 698.235 C 773.147 676.288 786.045 641.306 782.015 605.030 C 777.870 567.728 758.323 545.486 718.000 532.187 C 712.775 530.464 698.190 526.539 685.590 523.464 C 653.802 515.709 644.430 511.025 641.901 501.631 C 640.574 496.703 642.117 489.856 645.580 485.310 C 648.850 481.017 658.882 476.303 667.810 474.865 C 681.970 472.583 704.610 476.664 726.085 485.368 L 736.670 489.658 754.865 454.659 C 764.872 435.410 772.709 419.311 772.280 418.885 C 769.112 415.737 735.072 405.145 720.000 402.616 C 699.396 399.160 670.025 398.112 650.000 400.117 "/></g>
<g fill="#00AC36FF" stroke="#00AC36FF">
<path d="M 110.500 18.127 C 68.641 23.356 33.383 53.591 21.558 94.398 C 9.696 135.330 23.676 179.507 56.948 206.234 C 77.556 222.788 102.821 231.021 128.922 229.686 C 156.045 228.300 178.743 218.251 198.135 199.043 C 212.729 184.588 221.571 169.476 226.760 150.119 C 229.017 141.701 229.348 138.439 229.411 124.000 C 229.491 105.579 227.884 96.997 221.536 81.946 C 203.370 38.871 157.142 12.301 110.500 18.127 "/></g>
<g fill="#0469ADFF" stroke="#0469ADFF">
<path d="M 375.501 401.178 C 369.144 406.178 365.082 421.845 364.269 444.500 C 363.332 470.581 367.421 492.621 374.510 499.710 L 377.800 503.000 446.769 503.000 L 515.738 503.000 516.875 494.138 C 522.019 454.026 542.448 424.077 578.792 403.365 L 586.452 399.000 482.361 399.000 L 378.270 399.000 375.501 401.178 "/></g>
<g fill="#000000FF" stroke="#000000FF">
<path d="M 574.499 91.644 C 572.514 93.628 573.250 97.650 576.081 100.289 C 578.287 102.345 578.514 104.086 576.800 105.800 C 575.013 107.587 572.951 107.292 573.694 105.355 C 574.489 103.282 571.521 100.995 568.059 101.014 C 561.889 101.048 537.562 116.727 524.688 128.967 C 513.971 139.157 507.975 146.763 502.842 156.683 C 498.234 165.589 497.858 169.000 501.487 169.000 C 503.331 169.000 504.663 167.899 506.631 164.750 C 517.832 146.825 542.296 122.951 557.204 115.397 C 562.961 112.479 563.365 112.449 561.978 115.042 C 560.127 118.499 560.585 126.628 562.834 130.243 C 574.569 149.112 575.656 163.792 567.628 195.000 C 561.725 217.945 560.591 226.672 560.541 249.518 L 560.500 268.536 563.715 275.071 C 565.884 279.477 569.140 283.732 573.715 288.136 C 580.102 294.284 580.998 294.794 589.000 296.837 C 602.029 300.162 609.291 304.248 618.569 313.475 C 623.007 317.889 627.444 323.247 628.429 325.382 C 630.855 330.644 629.980 335.679 626.019 339.250 C 621.942 342.926 617.588 342.877 612.447 339.099 C 608.100 335.904 601.390 333.761 590.061 331.947 C 583.297 330.864 582.163 330.329 577.561 326.060 C 574.777 323.477 570.778 320.377 568.673 319.170 C 566.568 317.963 560.493 313.240 555.173 308.673 C 543.517 298.668 535.524 292.555 527.500 287.510 C 517.760 281.387 514.579 277.099 510.432 264.500 C 501.479 237.303 495.221 205.743 496.340 193.426 C 496.793 188.437 496.527 186.739 494.846 183.926 C 489.956 175.736 484.288 172.112 481.200 175.200 C 479.141 177.259 479.849 179.456 484.500 185.446 C 489.684 192.122 489.271 190.638 489.529 203.500 C 489.655 209.803 490.663 217.752 492.256 225.000 C 494.106 233.416 494.936 240.791 495.351 252.500 C 495.693 262.137 496.552 270.886 497.509 274.500 C 500.782 286.851 513.202 308.641 530.618 332.588 C 536.686 340.932 551.255 354.748 565.500 365.667 C 578.683 375.772 585.089 383.623 586.562 391.482 C 587.103 394.368 587.340 394.494 591.958 394.375 C 594.615 394.305 597.256 393.960 597.828 393.606 C 599.049 392.851 592.400 380.652 585.827 371.589 C 582.588 367.122 578.891 363.794 571.956 359.098 C 559.625 350.749 537.670 328.796 529.292 316.439 C 522.183 305.953 514.182 290.829 516.784 292.797 C 517.728 293.511 520.525 295.152 523.000 296.445 C 534.944 302.686 550.407 313.965 570.500 331.093 C 578.187 337.645 588.746 342.749 596.449 343.637 C 600.694 344.126 603.620 345.183 606.659 347.326 C 614.401 352.782 625.425 352.078 632.735 345.660 C 637.143 341.789 639.000 337.512 639.000 331.228 C 639.000 323.738 635.248 317.415 625.037 307.698 C 615.264 298.398 603.158 291.373 588.457 286.472 C 579.485 283.482 577.388 281.589 572.971 272.500 C 566.196 258.555 566.968 225.851 574.528 206.587 C 578.275 197.037 582.002 175.625 581.985 163.743 C 581.963 148.626 580.170 142.177 572.464 129.500 C 571.127 127.300 570.025 124.528 570.016 123.339 C 569.997 120.722 575.319 116.000 578.290 116.000 C 583.187 116.000 595.640 133.117 601.768 148.270 C 604.461 154.929 604.957 162.893 604.087 185.500 C 603.715 195.174 605.070 204.000 606.928 204.000 C 607.396 204.000 608.841 203.141 610.139 202.091 C 612.396 200.265 612.514 199.535 612.826 185.444 C 613.230 167.188 611.768 153.141 608.429 143.194 C 606.010 135.987 605.966 135.498 607.626 134.284 C 611.294 131.602 614.193 132.674 623.782 140.256 C 633.236 147.731 633.338 148.065 633.237 171.238 C 633.189 182.093 633.516 191.201 633.963 191.477 C 634.410 191.753 634.793 194.982 634.814 198.652 C 634.858 206.322 636.993 210.297 641.349 210.816 C 643.926 211.124 643.999 210.985 643.979 205.816 C 643.968 202.892 643.306 193.160 642.507 184.188 C 641.709 175.217 641.329 165.879 641.664 163.438 C 642.267 159.036 642.304 159.000 646.236 159.000 C 649.392 159.000 650.877 159.677 653.520 162.320 C 658.478 167.278 660.191 174.380 659.811 188.393 L 659.500 199.854 662.393 200.431 C 666.582 201.265 667.998 199.552 668.015 193.628 C 668.024 190.807 668.460 187.825 668.984 187.000 C 670.645 184.389 675.119 189.874 675.726 195.264 C 676.214 199.592 676.024 199.991 670.742 205.737 C 667.722 209.022 664.688 213.415 664.000 215.499 C 662.328 220.566 663.229 228.199 666.325 235.200 L 668.846 240.900 666.923 245.961 C 663.244 255.643 664.839 268.167 670.735 275.897 C 673.181 279.103 673.403 280.106 673.129 286.675 C 672.853 293.304 673.042 294.133 675.368 296.459 C 678.053 299.144 682.457 299.859 683.269 297.741 C 683.535 297.049 683.259 294.073 682.656 291.129 C 681.619 286.070 681.687 285.672 683.890 283.888 C 685.223 282.809 687.784 282.000 689.867 282.000 C 691.873 282.000 694.962 281.585 696.732 281.077 C 699.618 280.249 700.209 280.459 702.436 283.106 C 705.907 287.231 706.619 292.090 704.548 297.515 C 701.758 304.820 694.624 309.117 687.535 307.762 C 685.468 307.367 684.863 307.884 683.547 311.175 C 681.161 317.138 678.513 333.744 678.775 341.106 C 678.904 344.739 680.085 353.964 681.400 361.606 C 682.716 369.248 683.561 375.880 683.279 376.344 C 682.997 376.808 675.281 376.881 666.133 376.505 C 648.999 375.803 639.087 376.683 632.323 379.510 C 629.393 380.734 629.046 381.217 629.921 382.853 C 631.512 385.825 633.416 386.092 645.111 384.990 C 666.021 383.018 705.661 387.414 713.032 392.522 C 716.950 395.237 720.704 395.687 723.279 393.750 C 724.788 392.614 724.801 392.217 723.421 389.407 C 721.283 385.052 715.919 382.402 705.606 380.602 C 700.610 379.730 695.897 378.312 694.852 377.366 C 692.557 375.289 691.253 370.620 690.420 361.500 L 689.781 354.500 696.641 352.164 C 703.994 349.661 711.265 345.475 714.800 341.713 C 716.076 340.355 717.253 337.433 717.629 334.694 C 718.558 327.915 716.039 322.064 709.868 316.666 L 704.896 312.317 708.567 309.517 C 713.526 305.734 716.418 299.068 715.622 293.256 C 714.920 288.136 711.991 281.070 708.434 275.918 C 706.027 272.432 706.005 272.233 707.582 268.459 C 709.912 262.881 709.169 252.741 705.967 246.413 L 703.480 241.500 705.740 237.038 C 712.664 223.368 703.287 203.647 688.390 200.549 C 685.442 199.936 685.223 199.559 684.190 193.326 C 682.886 185.458 679.713 180.271 673.803 176.345 C 670.808 174.356 668.817 171.969 667.253 168.493 C 660.646 153.813 658.658 151.963 645.750 148.491 C 642.246 147.548 640.000 146.401 640.000 145.553 C 640.000 142.730 629.644 132.919 621.424 127.954 L 613.022 122.879 606.815 124.469 C 603.401 125.344 600.431 126.236 600.215 126.452 C 599.710 126.957 588.708 114.193 587.169 111.316 C 586.526 110.114 586.000 107.106 586.000 104.631 C 586.000 98.811 584.530 95.041 581.187 92.286 C 577.942 89.612 576.655 89.488 574.499 91.644 M 694.033 246.517 C 702.056 250.666 702.052 264.267 694.025 269.982 C 687.110 274.906 679.662 273.163 675.851 265.729 C 671.922 258.064 673.638 249.897 679.893 246.497 C 683.347 244.620 690.383 244.629 694.033 246.517 M 690.939 211.969 C 698.726 215.941 701.671 226.673 696.621 232.673 C 694.395 235.318 693.697 235.517 685.741 235.758 C 674.823 236.088 672.880 234.812 672.281 226.916 C 671.957 222.660 672.365 220.537 674.185 217.003 C 677.824 209.935 683.569 208.209 690.939 211.969 M 704.655 323.931 C 708.861 326.496 709.980 331.209 707.251 334.870 C 704.775 338.193 700.923 340.411 694.250 342.360 L 689.000 343.892 689.011 337.696 C 689.029 327.436 689.882 324.218 692.874 323.121 C 697.084 321.577 701.265 321.864 704.655 323.931 "/></g>
<g fill="#0469ADFF" stroke="#0469ADFF">
<path d="M 668.120 492.080 C 663.539 492.980 659.000 495.404 659.000 496.951 C 659.000 498.502 669.770 501.994 688.712 506.585 C 698.728 509.013 707.553 511.000 708.323 511.000 C 709.946 511.000 714.451 500.029 713.281 498.924 C 711.711 497.443 698.254 493.855 689.000 492.452 C 678.528 490.864 674.657 490.795 668.120 492.080 "/></g>
</svg>
